# xmcd
#
# Track frame offsets:
#	150
#	14264
#	36471
#	51068
#	70225
#	89099
#	106518
#	119630
#	134441
#	155250
#	166995
#	180650
#	198361
#	216048
#	231270
#	249522
#	268871
#	282313
#	293374
#	305199
#	319675
#	330272
#
# Disc length: 4597 seconds
#
# Revision: 0
# Processed by: cddbd v1.5.1PL2 Copyright (c) Steve Scherf et al.
# Submitted via: dBpowerAMP V4.0
#
DISCID=4111f316
DTITLE=Various Artist - First Ladies of Country
DYEAR=1900
DGENRE=Country
TTITLE0=Dolly Parton - I Will Always Love You
TTITLE1=Sheryl Crow - Run Baby Run
TTITLE2=Eva Cassidy - It Doesn't Matter Any More
TTITLE3=Katie Melua - Closest Thing To Crazy
TTITLE4=Juice Newton - Angel of The Morning
TTITLE5=Maria McKee - Show Me Heaven
TTITLE6=Tanya Tucker - I'm So Lonesome I Could Cry
TTITLE7=Martina McBride - Safe In The Arms Of Love
TTITLE8=Stevie Nicks - Rooms On Fire
TTITLE9=Deana Carter - Did I Shave My Legs For This
TTITLE10=Patty Loveless - Wine, Women and Song
TTITLE11=Loretta Lynn - Coal Miner's Daughter
TTITLE12=The Judds - Love Can Build a Bridge
TTITLE13=Allison Mooner - A Soft Place To Fall
TTITLE14=Connie Francis - He Thinks I Still Care
TTITLE15=Indigo Girls - Closer to Fine
TTITLE16=Mindy McCready - Oh Romeo
TTITLE17=Lacy J Dalton - Dream Baby
TTITLE18=Dolly Parton, Tammy Wynett and Loretta Lynn - Silver Threads and Golden Needles
TTITLE19=Patsy Cline - Walking After Midnight
TTITLE20=Tammy Wynett - No Charge
TTITLE21=Dolly Parton, Tammy Wynette and Loretta Lynn - Lovesick Blues
EXTD=
EXTT0=
EXTT1=
EXTT2=
EXTT3=
EXTT4=
EXTT5=
EXTT6=
EXTT7=
EXTT8=
EXTT9=
EXTT10=
EXTT11=
EXTT12=
EXTT13=
EXTT14=
EXTT15=
EXTT16=
EXTT17=
EXTT18=
EXTT19=
EXTT20=
EXTT21=
PLAYORDER=
